<svg width="153" height="40" viewBox="0 0 153 40" fill="none" xmlns="http://www.w3.org/2000/svg">
<path d="M37.2804 32.7954L35.3971 29.6229H8.33155L21.8854 6.17232L18.3463 0H13.7792C12.7985 0.002201 11.8359 0.264679 10.9899 0.760623C10.1438 1.25657 9.44455 1.9682 8.96352 2.82283L0.77309 17.2741C0.296862 18.1082 0.0463867 19.0521 0.0463867 20.0126C0.0463867 20.9732 0.296862 21.9171 0.77309 22.7512L6.50724 32.8629L8.96352 37.194C9.38454 37.9369 9.97183 38.5723 10.6794 39.0503C11.3869 39.5283 12.1955 39.8361 13.0419 39.9494C13.2848 39.9833 13.5297 40.0002 13.775 40H29.9747C30.9551 40.0005 31.9181 39.7411 32.7655 39.2482C33.613 38.7553 34.3146 38.0465 34.7988 37.194L37.2382 32.8629L37.2804 32.7954Z" fill="url(#paint0_linear_12764_4193)"/>
<path d="M35.3971 29.6229H8.38217L8.49593 29.5555L17.5627 24.1037C18.9615 23.1936 20.0148 22.6628 21.0049 22.49C21.0273 22.488 21.0499 22.488 21.0723 22.49L21.2661 22.4647L21.6032 22.4395H21.8054C21.9674 22.4439 22.1291 22.4565 22.2899 22.4774C23.3221 22.6164 24.4302 23.1304 25.9385 24.0025L35.3466 29.5892L35.3971 29.6229Z" fill="url(#paint1_linear_12764_4193)"/>
<path d="M37.2803 32.7957L37.2339 32.8757L34.7903 37.19C34.3081 38.0424 33.6081 38.7513 32.762 39.2444C31.9159 39.7374 30.9539 39.9968 29.9746 39.996H13.7749C13.5297 39.9962 13.2847 39.9793 13.0418 39.9454C12.1941 39.833 11.3839 39.5257 10.6749 39.0476C9.96581 38.5696 9.37714 37.9337 8.95503 37.19L6.50717 32.8631L8.37783 29.6273L8.47473 29.5684L17.5584 24.0912C18.9614 23.1812 20.0104 22.6461 21.0047 22.4776C21.0272 22.4756 21.0497 22.4756 21.0722 22.4776L21.266 22.4523L21.603 22.427H21.8053C21.9673 22.4314 22.129 22.4441 22.2898 22.4649C23.322 22.604 24.4259 23.1222 25.9342 23.9901L35.3464 29.5894L35.4012 29.6231L37.2803 32.7957Z" fill="url(#paint2_linear_12764_4193)"/>
<g opacity="0.5">
<path d="M25.9089 23.9901C22.3361 21.9088 21.0005 21.8456 17.5331 24.1038L8.35254 29.6231L17.5331 25.2793C21.0005 23.0168 22.3235 23.0969 25.9089 25.1613L35.3717 29.6273L25.9089 23.9901Z" fill="url(#paint3_linear_12764_4193)"/>
</g>
<path d="M42.9807 22.7512L37.2381 32.8629L37.2845 32.7828L35.397 29.6229L21.9148 6.14283V6.17232L18.3462 0H29.9788C30.96 0.00275811 31.9229 0.265431 32.7695 0.76128C33.6162 1.25713 34.3163 1.96845 34.7987 2.82283L42.9807 17.2741C43.4549 18.1089 43.7042 19.0525 43.7042 20.0126C43.7042 20.9727 43.4549 21.9164 42.9807 22.7512Z" fill="url(#paint4_linear_12764_4193)"/>
<path d="M0.726703 22.7512L6.47349 32.8629L6.42715 32.7828L8.31044 29.6103L21.7926 6.13019V6.15968L25.3696 0H13.7328C12.7521 0.002201 11.7896 0.264679 10.9435 0.760623C10.0974 1.25657 9.39817 1.9682 8.91714 2.82283L0.726703 17.2741C0.250475 18.1082 0 19.0521 0 20.0126C0 20.9732 0.250475 21.9171 0.726703 22.7512Z" fill="url(#paint5_linear_12764_4193)"/>
<path opacity="0.51" d="M25.3696 0L21.8558 6.11333L22.5088 7.15399L25.3696 0Z" fill="url(#paint6_linear_12764_4193)"/>
<path d="M147.404 30.3348V10.6171H151.988V30.3348H147.404ZM146.831 5.79725C146.831 4.07827 147.943 2.93228 149.696 2.93228C151.482 2.93228 152.561 4.07827 152.561 5.79725C152.561 7.51623 151.482 8.62851 149.696 8.62851C147.842 8.62851 146.831 7.51623 146.831 5.79725Z" fill="black"/>
<path d="M133.857 30.7394C129.105 30.7394 124.15 26.9644 124.15 20.4929C124.15 13.954 128.936 10.2127 133.925 10.2127C136.52 10.2127 138.812 11.2576 140.261 12.9766V10.6172H144.812V30.3349H140.261V27.7733C138.812 29.6271 136.453 30.7394 133.857 30.7394ZM134.599 26.5599C138.003 26.5599 140.497 23.8298 140.497 20.4255C140.497 17.055 138.003 14.3585 134.599 14.3585C131.228 14.3585 128.633 17.0212 128.633 20.4255C128.633 23.8635 131.228 26.5599 134.599 26.5599Z" fill="black"/>
<path d="M117.24 28.0091C117.24 26.3576 118.284 25.2453 120.003 25.2453C121.722 25.2453 122.734 26.3576 122.734 28.0091C122.734 29.627 121.689 30.7393 119.97 30.7393C118.251 30.7393 117.24 29.627 117.24 28.0091Z" fill="black"/>
<path d="M105.797 30.7394C99.595 30.7394 95.3818 26.2228 95.3818 20.5266C95.3818 14.763 99.8647 10.2127 105.628 10.2127C111.493 10.2127 115.774 14.527 115.774 20.3581V22.0771H99.7298C100.37 24.8746 102.561 26.7284 105.797 26.7284C108.358 26.7284 110.313 25.3802 111.257 23.2568L114.998 25.4139C113.279 28.6159 110.246 30.7394 105.797 30.7394ZM105.628 14.2237C102.898 14.2237 100.775 15.8416 99.9658 18.2684H111.156C110.482 15.6056 108.46 14.2237 105.628 14.2237Z" fill="black"/>
<path d="M83.8645 30.3348L76.3481 10.6171H81.1006L86.1902 24.5038L91.1786 10.6171H95.8636L88.4484 30.3348H83.8645Z" fill="black"/>
<path d="M56.6035 30.3349L65.3669 5.72989H69.9846L78.748 30.3349H73.9618L72.4451 25.9532H62.9064L61.3897 30.3349H56.6035ZM67.6926 12.2351L64.4569 21.5715H70.9284L67.6926 12.2351Z" fill="black"/>
<defs>
<linearGradient id="paint0_linear_12764_4193" x1="32.5308" y1="36.4441" x2="0.904255" y2="13.6784" gradientUnits="userSpaceOnUse">
<stop stop-color="#8B4FDD"/>
<stop offset="1" stop-color="#12B886"/>
</linearGradient>
<linearGradient id="paint1_linear_12764_4193" x1="31.9511" y1="28.9843" x2="28.2676" y2="18.2721" gradientUnits="userSpaceOnUse">
<stop stop-color="#8B4FDD"/>
<stop offset="1" stop-color="#12B886"/>
</linearGradient>
<linearGradient id="paint2_linear_12764_4193" x1="33.3549" y1="38.4341" x2="19.3557" y2="19.4725" gradientUnits="userSpaceOnUse">
<stop stop-color="#8B4FDD"/>
<stop offset="1" stop-color="#12B886"/>
</linearGradient>
<linearGradient id="paint3_linear_12764_4193" x1="31.9251" y1="28.9866" x2="28.2198" y2="18.2455" gradientUnits="userSpaceOnUse">
<stop stop-color="#8B4FDD"/>
<stop offset="1" stop-color="#12B886"/>
</linearGradient>
<linearGradient id="paint4_linear_12764_4193" x1="40.4695" y1="29.9414" x2="16.3558" y2="15.5526" gradientUnits="userSpaceOnUse">
<stop stop-color="#8B4FDD"/>
<stop offset="1" stop-color="#12B886"/>
</linearGradient>
<linearGradient id="paint5_linear_12764_4193" x1="22.1335" y1="29.9414" x2="-1.98553" y2="15.5429" gradientUnits="userSpaceOnUse">
<stop stop-color="#8B4FDD"/>
<stop offset="1" stop-color="#12B886"/>
</linearGradient>
<linearGradient id="paint6_linear_12764_4193" x1="24.9214" y1="6.51801" x2="20.9615" y2="5.01398" gradientUnits="userSpaceOnUse">
<stop stop-color="#8B4FDD"/>
<stop offset="1" stop-color="#12B886"/>
</linearGradient>
</defs>
</svg>
