<svg width="219" height="40" viewBox="0 0 219 40" fill="none" xmlns="http://www.w3.org/2000/svg">
<path d="M3.57281 16.2107L18.9032 25.1845V34.9441L10.5633 40L1.94499 35.0216V26.5692L10.3519 31.234L11.4547 30.6456L11.4477 29.4125L6.10352e-05 22.8063V18.1344L3.57281 16.2107Z" fill="#01E3D1"/>
<path d="M20.9186 35.3035L21.0243 17.5425L29.477 12.6628L38.0248 17.3523V27.3091L30.7032 31.5336L30.5411 21.9185L29.477 21.2596L28.4165 21.8832V35.0991L24.3716 37.4351L20.9186 35.3035Z" fill="#01E3D1"/>
<path d="M28.6524 10.8165L13.2163 19.6037L4.76361 14.7239L4.5522 4.97843L13.174 0L20.4957 4.22796L12.2473 9.1782L12.2086 10.4255L13.2797 11.0315L24.7238 4.42527L28.7722 6.76122L28.6524 10.8165Z" fill="#01E3D1"/>
<path d="M210.523 32C208.796 32 207.308 31.6501 206.062 30.9503C204.823 30.2433 203.868 29.2446 203.197 27.9544C202.527 26.6569 202.191 25.1225 202.191 23.3512C202.191 21.6236 202.527 20.1074 203.197 18.8026C203.868 17.4978 204.812 16.4809 206.029 15.752C207.254 15.0231 208.69 14.6586 210.337 14.6586C211.445 14.6586 212.477 14.8372 213.432 15.1944C214.394 15.5442 215.232 16.0727 215.946 16.7798C216.668 17.4869 217.229 18.3762 217.63 19.4477C218.031 20.5119 218.232 21.7584 218.232 23.1871V24.4664H204.05V21.5798H213.847C213.847 20.9092 213.701 20.3151 213.41 19.7976C213.118 19.28 212.714 18.8755 212.196 18.5839C211.686 18.285 211.092 18.1356 210.414 18.1356C209.707 18.1356 209.08 18.2996 208.533 18.6276C207.994 18.9484 207.571 19.3821 207.265 19.9288C206.959 20.4682 206.802 21.0696 206.795 21.7329V24.4774C206.795 25.3084 206.948 26.0264 207.254 26.6314C207.567 27.2364 208.008 27.7029 208.577 28.0309C209.145 28.359 209.82 28.523 210.6 28.523C211.117 28.523 211.591 28.4501 212.021 28.3043C212.451 28.1585 212.819 27.9398 213.125 27.6482C213.432 27.3567 213.665 26.9995 213.825 26.5767L218.133 26.861C217.915 27.8961 217.466 28.8 216.788 29.5726C216.118 30.338 215.25 30.9358 214.186 31.3658C213.129 31.7886 211.908 32 210.523 32Z" fill="black"/>
<path d="M199.554 19.6664L195.289 19.9288C195.216 19.5643 195.06 19.2363 194.819 18.9447C194.579 18.6459 194.261 18.409 193.868 18.234C193.482 18.0518 193.019 17.9607 192.479 17.9607C191.758 17.9607 191.149 18.1137 190.653 18.4199C190.158 18.7188 189.91 19.1197 189.91 19.6226C189.91 20.0236 190.07 20.3625 190.391 20.6395C190.712 20.9165 191.262 21.1388 192.042 21.3065L195.082 21.9188C196.714 22.2541 197.932 22.7935 198.734 23.537C199.535 24.2806 199.936 25.2573 199.936 26.4674C199.936 27.5681 199.612 28.5339 198.963 29.3649C198.322 30.1959 197.44 30.8446 196.317 31.3112C195.202 31.7704 193.915 32 192.457 32C190.234 32 188.463 31.5371 187.143 30.6114C185.831 29.6783 185.062 28.41 184.836 26.8063L189.418 26.5658C189.556 27.2437 189.891 27.7612 190.424 28.1184C190.956 28.4683 191.637 28.6432 192.468 28.6432C193.285 28.6432 193.941 28.4865 194.436 28.1731C194.939 27.8523 195.195 27.4405 195.202 26.9375C195.195 26.5147 195.016 26.1685 194.666 25.8988C194.316 25.6218 193.777 25.4104 193.048 25.2646L190.139 24.6851C188.499 24.3571 187.278 23.7885 186.476 22.9794C185.682 22.1703 185.285 21.1388 185.285 19.8851C185.285 18.8062 185.576 17.8768 186.159 17.0969C186.75 16.3169 187.577 15.7155 188.641 15.2928C189.713 14.87 190.967 14.6586 192.403 14.6586C194.524 14.6586 196.193 15.1069 197.41 16.0035C198.635 16.9001 199.349 18.121 199.554 19.6664Z" fill="black"/>
<path d="M181.849 9.2795V31.6725H177.191V9.2795H181.849Z" fill="black"/>
<path d="M168.807 24.5215V14.8776H173.465V31.6723H168.993V28.6217H168.818C168.439 29.6058 167.808 30.3967 166.926 30.9944C166.052 31.5922 164.984 31.891 163.723 31.891C162.6 31.891 161.612 31.6359 160.76 31.1256C159.907 30.6154 159.24 29.8901 158.759 28.9498C158.285 28.0094 158.044 26.8832 158.037 25.5711V14.8776H162.695V24.7402C162.702 25.7315 162.968 26.5151 163.493 27.091C164.018 27.6668 164.721 27.9548 165.603 27.9548C166.165 27.9548 166.689 27.8272 167.178 27.5721C167.666 27.3097 168.06 26.9233 168.359 26.4131C168.665 25.9028 168.814 25.2723 168.807 24.5215Z" fill="black"/>
<path d="M138.189 31.6725V9.2795H147.024C148.722 9.2795 150.169 9.60388 151.364 10.2526C152.56 10.8941 153.471 11.787 154.098 12.9315C154.732 14.0686 155.049 15.3807 155.049 16.8677C155.049 18.3548 154.729 19.6669 154.087 20.804C153.446 21.9411 152.516 22.8268 151.299 23.461C150.089 24.0952 148.624 24.4122 146.903 24.4122H141.272V20.6181H146.138C147.049 20.6181 147.8 20.4614 148.39 20.148C148.988 19.8272 149.433 19.3862 149.724 18.8249C150.023 18.2564 150.173 17.604 150.173 16.8677C150.173 16.1242 150.023 15.4755 149.724 14.9215C149.433 14.3602 148.988 13.9265 148.39 13.6203C147.793 13.3069 147.035 13.1502 146.116 13.1502H142.923V31.6725H138.189Z" fill="black"/>
<path d="M123.606 21.9625V31.672H118.948V14.8773H123.387V17.8404H123.584C123.955 16.8636 124.579 16.0909 125.453 15.5224C126.328 14.9465 127.389 14.6586 128.635 14.6586C129.802 14.6586 130.818 14.9137 131.686 15.424C132.553 15.9342 133.228 16.6632 133.709 17.6108C134.19 18.5511 134.43 19.6737 134.43 20.9785V31.672H129.772V21.8095C129.78 20.7817 129.517 19.9798 128.985 19.404C128.453 18.8208 127.72 18.5292 126.787 18.5292C126.161 18.5292 125.607 18.6641 125.125 18.9338C124.652 19.2035 124.28 19.5971 124.01 20.1147C123.748 20.6249 123.613 21.2409 123.606 21.9625Z" fill="black"/>
<path d="M110.559 31.6722V14.8775H115.216V31.6722H110.559ZM112.898 12.7126C112.206 12.7126 111.612 12.483 111.116 12.0237C110.628 11.5572 110.384 10.9996 110.384 10.3508C110.384 9.70936 110.628 9.15901 111.116 8.69978C111.612 8.23326 112.206 8 112.898 8C113.591 8 114.181 8.23326 114.67 8.69978C115.165 9.15901 115.413 9.70936 115.413 10.3508C115.413 10.9996 115.165 11.5572 114.67 12.0237C114.181 12.483 113.591 12.7126 112.898 12.7126Z" fill="black"/>
<path d="M97.4868 31.9891C96.4153 31.9891 95.4604 31.8032 94.6221 31.4314C93.7838 31.0524 93.1205 30.4947 92.6321 29.7585C92.151 29.015 91.9104 28.0893 91.9104 26.9813C91.9104 26.0482 92.0817 25.2646 92.4243 24.6304C92.7669 23.9963 93.2335 23.486 93.8239 23.0997C94.4143 22.7133 95.085 22.4218 95.8358 22.225C96.5939 22.0281 97.3884 21.8896 98.2194 21.8095C99.1962 21.7074 99.9834 21.6126 100.581 21.5252C101.179 21.4304 101.613 21.2919 101.882 21.1097C102.152 20.9274 102.287 20.6577 102.287 20.3006V20.235C102.287 19.5425 102.068 19.0067 101.631 18.6276C101.201 18.2486 100.588 18.0591 99.7939 18.0591C98.9556 18.0591 98.2886 18.245 97.793 18.6167C97.2973 18.9812 96.9693 19.4404 96.8089 19.9944L92.5009 19.6445C92.7196 18.624 93.1496 17.742 93.7911 16.9985C94.4326 16.2477 95.2599 15.6718 96.2731 15.2709C97.2936 14.8627 98.4745 14.6586 99.8158 14.6586C100.749 14.6586 101.642 14.7679 102.495 14.9866C103.355 15.2053 104.116 15.5442 104.78 16.0035C105.45 16.4627 105.979 17.0531 106.365 17.7748C106.752 18.4892 106.945 19.3457 106.945 20.3443V31.672H102.527V29.343H102.396C102.126 29.8679 101.766 30.3307 101.314 30.7317C100.862 31.1253 100.319 31.4351 99.6845 31.661C99.0504 31.8797 98.3178 31.9891 97.4868 31.9891ZM98.8208 28.7745C99.506 28.7745 100.111 28.6396 100.636 28.3699C101.161 28.0929 101.572 27.7211 101.871 27.2546C102.17 26.7881 102.32 26.2596 102.32 25.6692V23.8869C102.174 23.9817 101.973 24.0692 101.718 24.1493C101.47 24.2222 101.19 24.2915 100.876 24.3571C100.563 24.4154 100.249 24.4701 99.936 24.5211C99.6226 24.5648 99.3383 24.6049 99.0832 24.6414C98.5365 24.7216 98.059 24.8491 97.6508 25.0241C97.2426 25.199 96.9255 25.4359 96.6996 25.7348C96.4736 26.0264 96.3606 26.3908 96.3606 26.8282C96.3606 27.4624 96.5902 27.9471 97.0494 28.2824C97.516 28.6104 98.1064 28.7745 98.8208 28.7745Z" fill="black"/>
<path d="M78.1418 21.963V31.6725H73.4838V9.2795H78.0105V17.8409H78.2074C78.5864 16.8495 79.1987 16.0732 80.0443 15.5119C80.8898 14.9433 81.9505 14.6591 83.2261 14.6591C84.3924 14.6591 85.4093 14.9142 86.2767 15.4244C87.1514 15.9274 87.8293 16.6527 88.3104 17.6003C88.7988 18.5407 89.0394 19.6669 89.0321 20.9789V31.6725H84.3742V21.8099C84.3815 20.7748 84.119 19.9694 83.5869 19.3935C83.0621 18.8176 82.3259 18.5297 81.3782 18.5297C80.7441 18.5297 80.1828 18.6646 79.6944 18.9343C79.2133 19.204 78.8342 19.5976 78.5572 20.1152C78.2875 20.6254 78.149 21.2414 78.1418 21.963Z" fill="black"/>
<path d="M70.1763 17.1188H65.3871C65.2997 16.4992 65.1211 15.9489 64.8514 15.4678C64.5817 14.9794 64.2354 14.5639 63.8126 14.2213C63.3898 13.8787 62.9015 13.6163 62.3475 13.434C61.8008 13.2518 61.2067 13.1607 60.5652 13.1607C59.4062 13.1607 58.3966 13.4486 57.5365 14.0245C56.6763 14.5931 56.0094 15.424 55.5355 16.5174C55.0617 17.6036 54.8248 18.9229 54.8248 20.4756C54.8248 22.0719 55.0617 23.4132 55.5355 24.4993C56.0166 25.5854 56.6873 26.4055 57.5474 26.9595C58.4076 27.5135 59.4026 27.7905 60.5324 27.7905C61.1666 27.7905 61.7534 27.7066 62.2928 27.539C62.8395 27.3713 63.3242 27.1271 63.747 26.8064C64.1698 26.4784 64.5197 26.0811 64.7967 25.6146C65.081 25.1481 65.2778 24.6159 65.3871 24.0182L70.1763 24.0401C70.0523 25.0679 69.7425 26.0592 69.2469 27.0141C68.7585 27.9618 68.0988 28.811 67.2678 29.5618C66.4441 30.3053 65.46 30.8957 64.3156 31.3331C63.1785 31.7632 61.8919 31.9782 60.4559 31.9782C58.4586 31.9782 56.6727 31.5263 55.0982 30.6224C53.531 29.7185 52.2918 28.4101 51.3806 26.6971C50.4767 24.9841 50.0248 22.9102 50.0248 20.4756C50.0248 18.0336 50.484 15.9562 51.4025 14.2432C52.3209 12.5302 53.5674 11.2254 55.1419 10.3288C56.7164 9.42489 58.4877 8.97295 60.4559 8.97295C61.7534 8.97295 62.9561 9.15518 64.0641 9.51965C65.1794 9.88412 66.1671 10.4162 67.0272 11.116C67.8874 11.8085 68.5872 12.6577 69.1266 13.6637C69.6733 14.6696 70.0232 15.8213 70.1763 17.1188Z" fill="black"/>
</svg>
