<svg width="351" height="75" viewBox="0 0 351 75" fill="none" xmlns="http://www.w3.org/2000/svg">
<path d="M6.66184 30.2263L35.2468 46.9589V65.1565L19.6962 74.5837L3.62662 65.301V49.5407L19.302 58.2388L21.3583 57.1417L21.3452 54.8423L0.00012207 42.5245V33.8133L6.66184 30.2263Z" fill="#01E3D1"/>
<path d="M39.0047 65.8266L39.2018 32.7096L54.9626 23.6108L70.9008 32.3549V50.9203L57.2489 58.7972L56.9467 40.869L54.9626 39.6405L52.9851 40.8033V65.4456L45.4431 69.8011L39.0047 65.8266Z" fill="#01E3D1"/>
<path d="M53.425 20.1684L24.643 36.5528L8.88219 27.454L8.48801 9.28274L24.5642 0L38.2161 7.88343L22.8363 17.1136L22.7641 19.4392L24.7613 20.5692L46.0998 8.25132L53.6484 12.6069L53.425 20.1684Z" fill="#01E3D1"/>
<path d="M327.648 55.292C325.057 55.292 322.826 54.7672 320.957 53.7175C319.098 52.6569 317.665 51.159 316.659 49.2236C315.654 47.2774 315.151 44.9757 315.151 42.3188C315.151 39.7274 315.654 37.4531 316.659 35.4959C317.665 33.5387 319.081 32.0134 320.907 30.92C322.744 29.8266 324.898 29.2799 327.369 29.2799C329.031 29.2799 330.579 29.5478 332.011 30.0836C333.454 30.6084 334.712 31.4011 335.783 32.4617C336.866 33.5223 337.708 34.8563 338.309 36.4636C338.91 38.06 339.211 39.9297 339.211 42.0728V43.9917H317.939V39.6618H332.634C332.634 38.6559 332.415 37.7647 331.978 36.9884C331.541 36.2121 330.934 35.6053 330.158 35.1679C329.392 34.7196 328.501 34.4955 327.484 34.4955C326.424 34.4955 325.483 34.7415 324.663 35.2335C323.854 35.7146 323.22 36.3652 322.761 37.1852C322.301 37.9943 322.066 38.8964 322.055 39.8914V44.0081C322.055 45.2546 322.285 46.3316 322.744 47.2391C323.214 48.1466 323.876 48.8464 324.729 49.3384C325.582 49.8305 326.593 50.0765 327.763 50.0765C328.539 50.0765 329.25 49.9671 329.895 49.7485C330.54 49.5298 331.092 49.2018 331.552 48.7644C332.011 48.327 332.361 47.7913 332.601 47.1571L339.063 47.5835C338.735 49.1362 338.063 50.492 337.046 51.651C336.04 52.7991 334.739 53.6957 333.143 54.3408C331.557 54.9749 329.726 55.292 327.648 55.292Z" fill="white"/>
<path d="M311.194 36.7916L304.797 37.1852C304.688 36.6385 304.453 36.1465 304.092 35.7091C303.731 35.2608 303.256 34.9055 302.665 34.6431C302.086 34.3697 301.391 34.233 300.582 34.233C299.5 34.233 298.587 34.4626 297.843 34.9219C297.1 35.3702 296.728 35.9715 296.728 36.726C296.728 37.3274 296.969 37.8358 297.45 38.2513C297.931 38.6668 298.756 39.0003 299.926 39.2518L304.486 40.1702C306.935 40.6732 308.761 41.4823 309.964 42.5976C311.166 43.7129 311.768 45.178 311.768 46.9931C311.768 48.6441 311.281 50.0929 310.308 51.3394C309.346 52.5858 308.023 53.559 306.339 54.2588C304.666 54.9476 302.736 55.292 300.549 55.292C297.215 55.292 294.558 54.5977 292.579 53.2091C290.61 51.8095 289.457 49.907 289.118 47.5015L295.99 47.1407C296.198 48.1576 296.701 48.9339 297.499 49.4696C298.297 49.9945 299.319 50.2569 300.566 50.2569C301.79 50.2569 302.775 50.0218 303.518 49.5516C304.273 49.0705 304.655 48.4528 304.666 47.6983C304.655 47.0641 304.387 46.5448 303.862 46.1402C303.338 45.7247 302.529 45.4076 301.435 45.189L297.072 44.3197C294.612 43.8277 292.781 42.9748 291.578 41.7611C290.386 40.5475 289.79 39.0003 289.79 37.1196C289.79 35.5014 290.228 34.1073 291.102 32.9373C291.988 31.7674 293.229 30.8653 294.825 30.2312C296.433 29.597 298.313 29.2799 300.467 29.2799C303.649 29.2799 306.153 29.9524 307.979 31.2972C309.816 32.6421 310.888 34.4736 311.194 36.7916Z" fill="white"/>
<path d="M284.636 21.2113V54.8007H277.649V21.2113H284.636Z" fill="white"/>
<path d="M265.074 44.0743V29.6085H272.061V54.8006H265.353V50.2247H265.09C264.522 51.7008 263.576 52.8871 262.253 53.7837C260.941 54.6803 259.339 55.1286 257.447 55.1286C255.764 55.1286 254.282 54.7459 253.003 53.9805C251.723 53.2151 250.723 52.1272 250.001 50.7167C249.291 49.3062 248.93 47.6169 248.919 45.6488V29.6085H255.906V44.4023C255.917 45.8893 256.316 47.0647 257.103 47.9285C257.89 48.7923 258.945 49.2242 260.268 49.2242C261.11 49.2242 261.898 49.0329 262.63 48.6502C263.363 48.2566 263.953 47.677 264.402 46.9117C264.861 46.1463 265.085 45.2005 265.074 44.0743Z" fill="white"/>
<path d="M219.147 54.8007V21.2113H232.399C234.947 21.2113 237.117 21.6979 238.91 22.671C240.703 23.6332 242.07 24.9726 243.01 26.6893C243.962 28.395 244.437 30.3631 244.437 32.5937C244.437 34.8242 243.956 36.7923 242.994 38.498C242.032 40.2038 240.638 41.5322 238.812 42.4835C236.997 43.4348 234.799 43.9104 232.219 43.9104H223.772V38.2192H231.07C232.437 38.2192 233.563 37.9841 234.449 37.514C235.346 37.0329 236.013 36.3714 236.45 35.5295C236.898 34.6766 237.122 33.698 237.122 32.5937C237.122 31.4784 236.898 30.5052 236.45 29.6743C236.013 28.8323 235.346 28.1818 234.449 27.7225C233.552 27.2524 232.415 27.0173 231.038 27.0173H226.249V54.8007H219.147Z" fill="white"/>
<path d="M197.272 40.2358V54.8H190.285V29.6079H196.944V34.0526H197.239C197.797 32.5875 198.732 31.4284 200.044 30.5756C201.356 29.7118 202.947 29.2799 204.816 29.2799C206.566 29.2799 208.091 29.6626 209.392 30.428C210.693 31.1934 211.705 32.2868 212.426 33.7082C213.148 35.1187 213.509 36.8025 213.509 38.7597V54.8H206.522V40.0062C206.533 38.4645 206.139 37.2618 205.341 36.398C204.543 35.5233 203.444 35.0859 202.045 35.0859C201.104 35.0859 200.273 35.2882 199.552 35.6927C198.841 36.0973 198.283 36.6877 197.879 37.464C197.485 38.2294 197.283 39.1534 197.272 40.2358Z" fill="white"/>
<path d="M177.701 54.8003V29.6083H184.688V54.8003H177.701ZM181.211 26.3609C180.172 26.3609 179.281 26.0164 178.538 25.3276C177.805 24.6278 177.439 23.7914 177.439 22.8182C177.439 21.856 177.805 21.0305 178.538 20.3417C179.281 19.6419 180.172 19.292 181.211 19.292C182.25 19.292 183.135 19.6419 183.868 20.3417C184.612 21.0305 184.983 21.856 184.983 22.8182C184.983 23.7914 184.612 24.6278 183.868 25.3276C183.135 26.0164 182.25 26.3609 181.211 26.3609Z" fill="white"/>
<path d="M158.094 55.2756C156.486 55.2756 155.054 54.9968 153.797 54.4392C152.539 53.8706 151.544 53.0341 150.812 51.9298C150.09 50.8145 149.729 49.4259 149.729 47.7639C149.729 46.3644 149.986 45.189 150.5 44.2377C151.014 43.2864 151.714 42.5211 152.599 41.9415C153.485 41.362 154.491 40.9247 155.617 40.6295C156.754 40.3342 157.946 40.1265 159.193 40.0062C160.658 39.8531 161.839 39.711 162.735 39.5798C163.632 39.4376 164.282 39.2299 164.687 38.9565C165.092 38.6832 165.294 38.2786 165.294 37.7429V37.6445C165.294 36.6057 164.966 35.8021 164.31 35.2335C163.665 34.6649 162.746 34.3806 161.554 34.3806C160.297 34.3806 159.296 34.6595 158.553 35.2171C157.809 35.7638 157.317 36.4526 157.077 37.2836L150.615 36.7588C150.943 35.228 151.588 33.905 152.55 32.7897C153.512 31.6635 154.753 30.7997 156.273 30.1984C157.804 29.5861 159.575 29.2799 161.587 29.2799C162.987 29.2799 164.326 29.4439 165.605 29.7719C166.896 30.1 168.038 30.6084 169.033 31.2972C170.039 31.9861 170.832 32.8717 171.411 33.9542C171.991 35.0258 172.281 36.3105 172.281 37.8085V54.8H165.655V51.3066H165.458C165.053 52.0938 164.512 52.7881 163.834 53.3895C163.156 53.9799 162.342 54.4446 161.39 54.7836C160.439 55.1116 159.34 55.2756 158.094 55.2756ZM160.095 50.4537C161.122 50.4537 162.03 50.2514 162.817 49.8469C163.605 49.4314 164.222 48.8737 164.671 48.174C165.119 47.4742 165.343 46.6815 165.343 45.7958V43.1224C165.124 43.2646 164.824 43.3958 164.441 43.516C164.069 43.6254 163.648 43.7293 163.178 43.8277C162.708 43.9151 162.238 43.9971 161.768 44.0737C161.297 44.1393 160.871 44.1994 160.488 44.2541C159.668 44.3744 158.952 44.5657 158.34 44.8281C157.727 45.0906 157.252 45.4459 156.913 45.8942C156.574 46.3316 156.404 46.8783 156.404 47.5343C156.404 48.4856 156.749 49.2127 157.438 49.7157C158.137 50.2077 159.023 50.4537 160.095 50.4537Z" fill="white"/>
<path d="M129.076 40.2366V54.8007H122.089V21.2113H128.879V34.0534H129.175C129.743 32.5663 130.662 31.4018 131.93 30.5599C133.198 29.7071 134.789 29.2806 136.703 29.2806C138.452 29.2806 139.977 29.6633 141.279 30.4287C142.591 31.1832 143.607 32.2711 144.329 33.6925C145.062 35.103 145.423 36.7923 145.412 38.7605V54.8007H138.425V40.0069C138.436 38.4543 138.042 37.2461 137.244 36.3823C136.457 35.5185 135.352 35.0866 133.931 35.0866C132.98 35.0866 132.138 35.2889 131.405 35.6935C130.683 36.098 130.115 36.6885 129.699 37.4648C129.295 38.2302 129.087 39.1541 129.076 40.2366Z" fill="white"/>
<path d="M117.128 32.9703H109.944C109.813 32.0409 109.545 31.2154 109.141 30.4937C108.736 29.7611 108.217 29.1379 107.582 28.624C106.948 28.1101 106.216 27.7165 105.385 27.4431C104.565 27.1698 103.674 27.0331 102.711 27.0331C100.973 27.0331 99.4585 27.465 98.1682 28.3288C96.878 29.1816 95.8776 30.4281 95.1668 32.0682C94.4561 33.6974 94.1008 35.6765 94.1008 38.0054C94.1008 40.4 94.4561 42.4118 95.1668 44.041C95.8885 45.6702 96.8944 46.9003 98.1846 47.7312C99.4749 48.5622 100.967 48.9777 102.662 48.9777C103.613 48.9777 104.494 48.852 105.303 48.6005C106.123 48.349 106.85 47.9827 107.484 47.5016C108.118 47.0096 108.643 46.4137 109.059 45.7139C109.485 45.0141 109.78 44.2159 109.944 43.3194L117.128 43.3522C116.942 44.8939 116.477 46.3809 115.734 47.8133C115.001 49.2347 114.012 50.5085 112.765 51.6347C111.53 52.75 110.054 53.6356 108.337 54.2917C106.631 54.9368 104.701 55.2593 102.547 55.2593C99.5514 55.2593 96.8726 54.5814 94.5108 53.2256C92.16 51.8698 90.3012 49.9071 88.9344 47.3376C87.5786 44.7681 86.9007 41.6574 86.9007 38.0054C86.9007 34.3425 87.5895 31.2263 88.9672 28.6568C90.3449 26.0873 92.2146 24.1301 94.5764 22.7852C96.9382 21.4294 99.5951 20.7515 102.547 20.7515C104.494 20.7515 106.298 21.0248 107.96 21.5715C109.633 22.1182 111.114 22.9164 112.404 23.9661C113.695 25.0048 114.744 26.2786 115.553 27.7875C116.373 29.2964 116.898 31.024 117.128 32.9703Z" fill="white"/>
</svg>
