<svg width="24" height="24" viewBox="0 0 24 24" fill="none" xmlns="http://www.w3.org/2000/svg">
<path d="M12 0C5.37257 0 0 5.37257 0 12C0 18.6274 5.37257 24 12 24C18.6274 24 24 18.6274 24 12C24 5.37257 18.6274 0 12 0ZM19.7143 12L19.7143 12.0011C19.7146 12.2208 19.6314 12.4407 19.4646 12.6075C19.4477 12.6243 19.4302 12.6401 19.4123 12.6553L14.3173 17.7503C13.9844 18.0832 13.4397 18.0832 13.1068 17.7503C12.7739 17.4175 12.7739 16.8727 13.1068 16.5399L16.7895 12.8571H6.28571C5.81429 12.8571 5.42857 12.4714 5.42857 12C5.42857 11.5286 5.81429 11.1429 6.28571 11.1429H16.7895L13.1068 7.46012C12.7739 7.12725 12.7739 6.58254 13.1068 6.24964C13.4397 5.91678 13.9844 5.91678 14.3173 6.24964L19.4124 11.3447C19.4304 11.3599 19.4479 11.3759 19.4646 11.3925C19.6314 11.5592 19.7146 11.7791 19.7143 11.9989V12Z" fill="#333333"/>
</svg>
